<svg width="30" height="30" viewBox="0 0 30 30" fill="none" xmlns="http://www.w3.org/2000/svg">
<g clip-path="url(#clip0_64:5256)">
<path d="M3.4375 0C1.53875 0 0 1.53875 0 3.4375V14.375H14.375V0H3.4375ZM9.0625 8.4375H7.8125V9.6875C7.8125 10.205 7.3925 10.625 6.875 10.625C6.3575 10.625 5.9375 10.205 5.9375 9.6875V8.4375H4.6875C4.17 8.4375 3.75 8.0175 3.75 7.5C3.75 6.9825 4.17 6.5625 4.6875 6.5625H5.9375V5.3125C5.9375 4.795 6.3575 4.375 6.875 4.375C7.3925 4.375 7.8125 4.795 7.8125 5.3125V6.5625H9.0625C9.58 6.5625 10 6.9825 10 7.5C10 8.0175 9.58 8.4375 9.0625 8.4375Z" fill="#F24C27"/>
<path d="M0 15.625V26.5625C0 28.4613 1.53875 30 3.4375 30H14.375V15.625H0ZM9.4125 23.7125C9.77875 24.0787 9.77875 24.6725 9.4125 25.0387C9.23 25.2213 8.99 25.3125 8.75 25.3125C8.51 25.3125 8.27 25.2213 8.0875 25.0375L7.1875 24.1375L6.2875 25.0375C6.105 25.22 5.865 25.3125 5.625 25.3125C5.385 25.3125 5.145 25.2213 4.9625 25.0375C4.59625 24.6713 4.59625 24.0775 4.9625 23.7113L5.8625 22.8113L4.9625 21.9112C4.59625 21.545 4.59625 20.9513 4.9625 20.585C5.32875 20.2188 5.9225 20.2188 6.28875 20.585L7.18875 21.485L8.08875 20.585C8.455 20.2188 9.04875 20.2188 9.415 20.585C9.78125 20.9513 9.78125 21.545 9.415 21.9112L8.515 22.8113L9.4125 23.7125Z" fill="#F24C27"/>
<path d="M26.5627 0H15.6252V14.375H30.0002V3.4375C30.0002 1.53875 28.4615 0 26.5627 0ZM25.9377 8.125H20.3127C19.7952 8.125 19.3752 7.705 19.3752 7.1875C19.3752 6.67 19.7952 6.25 20.3127 6.25H25.9377C26.4552 6.25 26.8752 6.67 26.8752 7.1875C26.8752 7.705 26.4552 8.125 25.9377 8.125Z" fill="#F24C27"/>
<path d="M15.6252 15.625V30H26.5627C28.4615 30 30.0002 28.4613 30.0002 26.5625V15.625H15.6252ZM25.6252 25.625H20.0002C19.4827 25.625 19.0627 25.205 19.0627 24.6875C19.0627 24.17 19.4827 23.75 20.0002 23.75H25.6252C26.1427 23.75 26.5627 24.17 26.5627 24.6875C26.5627 25.205 26.1427 25.625 25.6252 25.625ZM25.6252 21.875H20.0002C19.4827 21.875 19.0627 21.455 19.0627 20.9375C19.0627 20.42 19.4827 20 20.0002 20H25.6252C26.1427 20 26.5627 20.42 26.5627 20.9375C26.5627 21.455 26.1427 21.875 25.6252 21.875Z" fill="#F24C27"/>
</g>
<defs>
<clipPath id="clip0_64:5256">
<rect width="30" height="30" fill="white"/>
</clipPath>
</defs>
</svg>
