<svg width="30" height="30" viewBox="0 0 30 30" fill="none" xmlns="http://www.w3.org/2000/svg">
<g clip-path="url(#clip0_64:4582)">
<path d="M24.9361 21.4261L27.6667 18.6956L26.4237 17.4526L24.3601 19.5162L23.6889 17.291L26.3211 14.6588L25.0781 13.4159L23.1128 15.3812L22.5631 13.5587L16.6594 19.2223L23.4073 30L26.5687 26.8386L24.9361 21.4261Z" fill="#7EADBF"/>
<path d="M16.4413 7.43712L14.6188 6.88739L16.5841 4.9221L15.3412 3.67915L12.709 6.31135L10.4838 5.64016L12.5474 3.57649L11.3045 2.33354L8.57391 5.06407L3.16148 3.43153L0 6.59296L10.7777 13.3408L16.4413 7.43712Z" fill="#7EADBF"/>
<path d="M29.1399 4.81332C30.2706 3.72863 30.2893 1.92676 29.1814 0.818867C28.0735 -0.289024 26.2716 -0.270333 25.1869 0.860292L8.09942 18.672L2.7238 17.4992L0.0325928 20.1904L6.26684 23.7334L9.80995 29.9677L12.5011 27.2765L11.3283 21.9009L29.1399 4.81332Z" fill="#7EADBF"/>
</g>
<defs>
<clipPath id="clip0_64:4582">
<rect width="30" height="30" fill="white"/>
</clipPath>
</defs>
</svg>
